<svg width="107" height="32" viewBox="0 0 107 32" fill="none" xmlns="http://www.w3.org/2000/svg">
<circle cx="12" cy="16" r="9" stroke="#148AD9" stroke-width="6"/>
<path d="M46.1602 17.1953H36.3711V22.377H47.5273V26H32.2559V5.84766H47.0352V9.41602H36.3711V13.6953H46.1602V17.1953ZM49.0312 11.0977H53.4062L56.5098 22.0898L59.6816 11.0977H63.8652L58.4922 26H54.377L49.0312 11.0977ZM78.8359 21.625C78.7357 22.5091 78.2754 23.4069 77.4551 24.3184C76.179 25.7676 74.3926 26.4922 72.0957 26.4922C70.1999 26.4922 68.5273 25.8815 67.0781 24.6602C65.6289 23.4388 64.9043 21.4518 64.9043 18.6992C64.9043 16.1198 65.556 14.1419 66.8594 12.7656C68.1719 11.3893 69.8717 10.7012 71.959 10.7012C73.1986 10.7012 74.3151 10.9336 75.3086 11.3984C76.3021 11.8633 77.1224 12.597 77.7695 13.5996C78.3529 14.4837 78.7311 15.5091 78.9043 16.6758C79.0046 17.3594 79.0456 18.3438 79.0273 19.6289H68.8281C68.8828 21.1237 69.3522 22.1719 70.2363 22.7734C70.7741 23.1471 71.4212 23.334 72.1777 23.334C72.9798 23.334 73.6315 23.1061 74.1328 22.6504C74.4062 22.4043 74.6478 22.0625 74.8574 21.625H78.8359ZM74.9805 17.0586C74.9167 16.0286 74.6022 15.2493 74.0371 14.7207C73.4811 14.1829 72.7884 13.9141 71.959 13.9141C71.0566 13.9141 70.3548 14.1966 69.8535 14.7617C69.3613 15.3268 69.0514 16.0924 68.9238 17.0586H74.9805ZM88.6797 13.9824C87.3581 13.9824 86.4512 14.543 85.959 15.6641C85.7038 16.2565 85.5762 17.013 85.5762 17.9336V26H81.6934V11.125H85.4531V13.2988C85.9544 12.5332 86.4284 11.9818 86.875 11.6445C87.6771 11.043 88.6934 10.7422 89.9238 10.7422C91.4642 10.7422 92.722 11.1478 93.6973 11.959C94.6816 12.7611 95.1738 14.0964 95.1738 15.9648V26H91.1816V16.9355C91.1816 16.1517 91.0768 15.5501 90.8672 15.1309C90.4844 14.3652 89.7552 13.9824 88.6797 13.9824ZM105.605 23.2246V26.1367L103.76 26.2051C101.919 26.2689 100.661 25.9499 99.9863 25.248C99.5488 24.8014 99.3301 24.1133 99.3301 23.1836V14.0098H97.252V11.2344H99.3301V7.07812H103.186V11.2344H105.605V14.0098H103.186V21.8848C103.186 22.4954 103.263 22.8783 103.418 23.0332C103.573 23.179 104.047 23.252 104.84 23.252C104.958 23.252 105.081 23.252 105.209 23.252C105.346 23.2428 105.478 23.2337 105.605 23.2246Z" fill="#111111"/>
</svg>
